<svg width="227" height="80" viewBox="0 0 227 80" fill="none" xmlns="http://www.w3.org/2000/svg">
<g clip-path="url(#clip0_1_424)">
<rect width="227" height="80" rx="4" fill="#427A5B"/>
<path d="M746.331 330.965L-565.642 -4652.2H-226.836L1085.14 330.965H746.331Z" fill="#FFCA66"/>
<path d="M1160.32 3468.64L-151.658 -1514.53H187.148L1499.12 3468.64H1160.32Z" fill="#B4CD93"/>
<path d="M486.018 1896.29L-157.806 -553.346H8.45612L652.28 1896.29H486.018Z" fill="#FF896B"/>
<path d="M316.022 471.168L-94.2737 -1088.25H11.6817L421.977 471.168H316.022Z" fill="#FFCA66"/>
<path d="M146.668 844.949L-120.916 -170.103H-51.8149L215.769 844.949H146.668Z" fill="#FFCA66"/>
<path d="M576.424 601.779L65.5817 -1340.33H197.503L708.345 601.779H576.424Z" fill="#FF896B"/>
<path d="M35.3749 335.353L-475.467 -1606.75H-343.547L167.296 335.353H35.3749Z" fill="#B4CD93"/>
</g>
<rect opacity="0.5" width="227" height="80" rx="4" fill="#212121"/>
<path d="M17.216 42.388V39.58H19.724V42.388H17.216ZM17.216 23.152V20.332H19.724V23.152H17.216ZM18.596 40.36C17.396 40.36 16.324 40.144 15.38 39.712C14.436 39.28 13.66 38.668 13.052 37.876C12.452 37.076 12.06 36.132 11.876 35.044L14.36 34.648C14.6 35.672 15.112 36.488 15.896 37.096C16.68 37.696 17.62 37.996 18.716 37.996C19.804 37.996 20.688 37.736 21.368 37.216C22.056 36.696 22.4 36.032 22.4 35.224C22.4 34.648 22.224 34.18 21.872 33.82C21.528 33.46 20.964 33.156 20.18 32.908L16.124 31.66C13.724 30.916 12.524 29.476 12.524 27.34C12.524 26.332 12.764 25.456 13.244 24.712C13.732 23.968 14.416 23.392 15.296 22.984C16.176 22.576 17.204 22.372 18.38 22.372C19.508 22.388 20.508 22.596 21.38 22.996C22.26 23.396 22.988 23.972 23.564 24.724C24.148 25.476 24.552 26.38 24.776 27.436L22.22 27.892C22.108 27.276 21.872 26.732 21.512 26.26C21.16 25.788 20.712 25.42 20.168 25.156C19.632 24.892 19.028 24.756 18.356 24.748C17.724 24.732 17.156 24.832 16.652 25.048C16.156 25.256 15.76 25.552 15.464 25.936C15.176 26.312 15.032 26.74 15.032 27.22C15.032 27.748 15.236 28.196 15.644 28.564C16.052 28.932 16.696 29.248 17.576 29.512L20.756 30.436C22.212 30.868 23.264 31.448 23.912 32.176C24.56 32.904 24.884 33.872 24.884 35.08C24.884 36.136 24.62 37.06 24.092 37.852C23.572 38.636 22.84 39.252 21.896 39.7C20.952 40.14 19.852 40.36 18.596 40.36ZM34.7656 40V36.988H26.9656V34.612L32.5816 22.72H35.4496L29.8336 34.612H34.7656V29.932H37.3096V34.612H39.0256V36.988H37.3096V40H34.7656ZM47.9306 40.36C46.7546 40.36 45.7146 40.104 44.8106 39.592C43.9066 39.072 43.1946 38.36 42.6746 37.456C42.1626 36.552 41.9066 35.512 41.9066 34.336V28.384C41.9066 27.208 42.1626 26.168 42.6746 25.264C43.1946 24.36 43.9066 23.652 44.8106 23.14C45.7146 22.62 46.7546 22.36 47.9306 22.36C49.1066 22.36 50.1466 22.62 51.0506 23.14C51.9546 23.652 52.6626 24.36 53.1746 25.264C53.6946 26.168 53.9546 27.208 53.9546 28.384V34.336C53.9546 35.512 53.6946 36.552 53.1746 37.456C52.6626 38.36 51.9546 39.072 51.0506 39.592C50.1466 40.104 49.1066 40.36 47.9306 40.36ZM47.9306 37.96C48.5706 37.96 49.1506 37.808 49.6706 37.504C50.1986 37.192 50.6186 36.776 50.9306 36.256C51.2426 35.728 51.3986 35.14 51.3986 34.492V28.204C51.3986 27.564 51.2426 26.984 50.9306 26.464C50.6186 25.936 50.1986 25.52 49.6706 25.216C49.1506 24.904 48.5706 24.748 47.9306 24.748C47.2906 24.748 46.7066 24.904 46.1786 25.216C45.6586 25.52 45.2426 25.936 44.9306 26.464C44.6186 26.984 44.4626 27.564 44.4626 28.204V34.492C44.4626 35.14 44.6186 35.728 44.9306 36.256C45.2426 36.776 45.6586 37.192 46.1786 37.504C46.7066 37.808 47.2906 37.96 47.9306 37.96ZM63.329 40.36C62.153 40.36 61.113 40.104 60.209 39.592C59.305 39.072 58.593 38.36 58.073 37.456C57.561 36.552 57.305 35.512 57.305 34.336V28.384C57.305 27.208 57.561 26.168 58.073 25.264C58.593 24.36 59.305 23.652 60.209 23.14C61.113 22.62 62.153 22.36 63.329 22.36C64.505 22.36 65.545 22.62 66.449 23.14C67.353 23.652 68.061 24.36 68.573 25.264C69.093 26.168 69.353 27.208 69.353 28.384V34.336C69.353 35.512 69.093 36.552 68.573 37.456C68.061 38.36 67.353 39.072 66.449 39.592C65.545 40.104 64.505 40.36 63.329 40.36ZM63.329 37.96C63.969 37.96 64.549 37.808 65.069 37.504C65.597 37.192 66.017 36.776 66.329 36.256C66.641 35.728 66.797 35.14 66.797 34.492V28.204C66.797 27.564 66.641 26.984 66.329 26.464C66.017 25.936 65.597 25.52 65.069 25.216C64.549 24.904 63.969 24.748 63.329 24.748C62.689 24.748 62.105 24.904 61.577 25.216C61.057 25.52 60.641 25.936 60.329 26.464C60.017 26.984 59.861 27.564 59.861 28.204V34.492C59.861 35.14 60.017 35.728 60.329 36.256C60.641 36.776 61.057 37.192 61.577 37.504C62.105 37.808 62.689 37.96 63.329 37.96ZM72.4634 42.868L72.6194 41.752C72.9634 41.776 73.2314 41.712 73.4234 41.56C73.6154 41.408 73.7434 41.196 73.8074 40.924C73.8714 40.652 73.8834 40.344 73.8434 40H72.4634V37.108H75.1154V40.24C75.1154 41.184 74.8874 41.896 74.4314 42.376C73.9834 42.856 73.3274 43.02 72.4634 42.868ZM85.6884 40.36C84.5124 40.36 83.4724 40.104 82.5684 39.592C81.6644 39.072 80.9524 38.36 80.4324 37.456C79.9204 36.552 79.6644 35.512 79.6644 34.336V28.384C79.6644 27.208 79.9204 26.168 80.4324 25.264C80.9524 24.36 81.6644 23.652 82.5684 23.14C83.4724 22.62 84.5124 22.36 85.6884 22.36C86.8644 22.36 87.9044 22.62 88.8084 23.14C89.7124 23.652 90.4204 24.36 90.9324 25.264C91.4524 26.168 91.7124 27.208 91.7124 28.384V34.336C91.7124 35.512 91.4524 36.552 90.9324 37.456C90.4204 38.36 89.7124 39.072 88.8084 39.592C87.9044 40.104 86.8644 40.36 85.6884 40.36ZM85.6884 37.96C86.3284 37.96 86.9084 37.808 87.4284 37.504C87.9564 37.192 88.3764 36.776 88.6884 36.256C89.0004 35.728 89.1564 35.14 89.1564 34.492V28.204C89.1564 27.564 89.0004 26.984 88.6884 26.464C88.3764 25.936 87.9564 25.52 87.4284 25.216C86.9084 24.904 86.3284 24.748 85.6884 24.748C85.0484 24.748 84.4644 24.904 83.9364 25.216C83.4164 25.52 83.0004 25.936 82.6884 26.464C82.3764 26.984 82.2204 27.564 82.2204 28.204V34.492C82.2204 35.14 82.3764 35.728 82.6884 36.256C83.0004 36.776 83.4164 37.192 83.9364 37.504C84.4644 37.808 85.0484 37.96 85.6884 37.96ZM101.087 40.36C99.9108 40.36 98.8708 40.104 97.9668 39.592C97.0628 39.072 96.3508 38.36 95.8308 37.456C95.3188 36.552 95.0628 35.512 95.0628 34.336V28.384C95.0628 27.208 95.3188 26.168 95.8308 25.264C96.3508 24.36 97.0628 23.652 97.9668 23.14C98.8708 22.62 99.9108 22.36 101.087 22.36C102.263 22.36 103.303 22.62 104.207 23.14C105.111 23.652 105.819 24.36 106.331 25.264C106.851 26.168 107.111 27.208 107.111 28.384V34.336C107.111 35.512 106.851 36.552 106.331 37.456C105.819 38.36 105.111 39.072 104.207 39.592C103.303 40.104 102.263 40.36 101.087 40.36ZM101.087 37.96C101.727 37.96 102.307 37.808 102.827 37.504C103.355 37.192 103.775 36.776 104.087 36.256C104.399 35.728 104.555 35.14 104.555 34.492V28.204C104.555 27.564 104.399 26.984 104.087 26.464C103.775 25.936 103.355 25.52 102.827 25.216C102.307 24.904 101.727 24.748 101.087 24.748C100.447 24.748 99.8628 24.904 99.3348 25.216C98.8148 25.52 98.3988 25.936 98.0868 26.464C97.7748 26.984 97.6188 27.564 97.6188 28.204V34.492C97.6188 35.14 97.7748 35.728 98.0868 36.256C98.3988 36.776 98.8148 37.192 99.3348 37.504C99.8628 37.808 100.447 37.96 101.087 37.96ZM116.485 40.36C115.309 40.36 114.269 40.104 113.365 39.592C112.461 39.072 111.749 38.36 111.229 37.456C110.717 36.552 110.461 35.512 110.461 34.336V28.384C110.461 27.208 110.717 26.168 111.229 25.264C111.749 24.36 112.461 23.652 113.365 23.14C114.269 22.62 115.309 22.36 116.485 22.36C117.661 22.36 118.701 22.62 119.605 23.14C120.509 23.652 121.217 24.36 121.729 25.264C122.249 26.168 122.509 27.208 122.509 28.384V34.336C122.509 35.512 122.249 36.552 121.729 37.456C121.217 38.36 120.509 39.072 119.605 39.592C118.701 40.104 117.661 40.36 116.485 40.36ZM116.485 37.96C117.125 37.96 117.705 37.808 118.225 37.504C118.753 37.192 119.173 36.776 119.485 36.256C119.797 35.728 119.953 35.14 119.953 34.492V28.204C119.953 27.564 119.797 26.984 119.485 26.464C119.173 25.936 118.753 25.52 118.225 25.216C117.705 24.904 117.125 24.748 116.485 24.748C115.845 24.748 115.261 24.904 114.733 25.216C114.213 25.52 113.797 25.936 113.485 26.464C113.173 26.984 113.017 27.564 113.017 28.204V34.492C113.017 35.14 113.173 35.728 113.485 36.256C113.797 36.776 114.213 37.192 114.733 37.504C115.261 37.808 115.845 37.96 116.485 37.96Z" fill="white"/>
<path d="M11.84 67V58.36H15.176C15.26 58.36 15.354 58.364 15.458 58.372C15.566 58.376 15.674 58.388 15.782 58.408C16.234 58.476 16.616 58.634 16.928 58.882C17.244 59.126 17.482 59.434 17.642 59.806C17.806 60.178 17.888 60.59 17.888 61.042C17.888 61.694 17.716 62.26 17.372 62.74C17.028 63.22 16.536 63.522 15.896 63.646L15.59 63.718H12.722V67H11.84ZM17.072 67L15.368 63.484L16.214 63.16L18.086 67H17.072ZM12.722 62.878H15.152C15.224 62.878 15.308 62.874 15.404 62.866C15.5 62.858 15.594 62.844 15.686 62.824C15.982 62.76 16.224 62.638 16.412 62.458C16.604 62.278 16.746 62.064 16.838 61.816C16.934 61.568 16.982 61.31 16.982 61.042C16.982 60.774 16.934 60.516 16.838 60.268C16.746 60.016 16.604 59.8 16.412 59.62C16.224 59.44 15.982 59.318 15.686 59.254C15.594 59.234 15.5 59.222 15.404 59.218C15.308 59.21 15.224 59.206 15.152 59.206H12.722V62.878ZM22.1523 67.18C21.5203 67.18 20.9723 67.04 20.5083 66.76C20.0483 66.48 19.6903 66.086 19.4343 65.578C19.1783 65.07 19.0503 64.474 19.0503 63.79C19.0503 63.082 19.1763 62.47 19.4283 61.954C19.6803 61.438 20.0343 61.04 20.4903 60.76C20.9503 60.48 21.4923 60.34 22.1163 60.34C22.7563 60.34 23.3023 60.488 23.7543 60.784C24.2063 61.076 24.5483 61.496 24.7803 62.044C25.0123 62.592 25.1183 63.246 25.0983 64.006H24.1983V63.694C24.1823 62.854 24.0003 62.22 23.6523 61.792C23.3083 61.364 22.8043 61.15 22.1403 61.15C21.4443 61.15 20.9103 61.376 20.5383 61.828C20.1703 62.28 19.9863 62.924 19.9863 63.76C19.9863 64.576 20.1703 65.21 20.5383 65.662C20.9103 66.11 21.4363 66.334 22.1163 66.334C22.5803 66.334 22.9843 66.228 23.3283 66.016C23.6763 65.8 23.9503 65.49 24.1503 65.086L24.9723 65.404C24.7163 65.968 24.3383 66.406 23.8383 66.718C23.3423 67.026 22.7803 67.18 22.1523 67.18ZM19.6743 64.006V63.268H24.6243V64.006H19.6743ZM27.9475 67L25.5955 60.52H26.4895L28.4035 65.848L30.3055 60.52H31.2115L28.8595 67H27.9475ZM34.7968 67.18C34.1648 67.18 33.6168 67.04 33.1528 66.76C32.6928 66.48 32.3348 66.086 32.0788 65.578C31.8228 65.07 31.6948 64.474 31.6948 63.79C31.6948 63.082 31.8208 62.47 32.0728 61.954C32.3248 61.438 32.6788 61.04 33.1348 60.76C33.5948 60.48 34.1368 60.34 34.7608 60.34C35.4008 60.34 35.9468 60.488 36.3988 60.784C36.8508 61.076 37.1928 61.496 37.4248 62.044C37.6568 62.592 37.7628 63.246 37.7428 64.006H36.8428V63.694C36.8268 62.854 36.6448 62.22 36.2968 61.792C35.9528 61.364 35.4488 61.15 34.7848 61.15C34.0888 61.15 33.5548 61.376 33.1828 61.828C32.8148 62.28 32.6308 62.924 32.6308 63.76C32.6308 64.576 32.8148 65.21 33.1828 65.662C33.5548 66.11 34.0808 66.334 34.7608 66.334C35.2248 66.334 35.6288 66.228 35.9728 66.016C36.3208 65.8 36.5948 65.49 36.7948 65.086L37.6168 65.404C37.3608 65.968 36.9828 66.406 36.4828 66.718C35.9868 67.026 35.4248 67.18 34.7968 67.18ZM32.3188 64.006V63.268H37.2688V64.006H32.3188ZM43.5786 67V63.694C43.5786 63.334 43.5446 63.004 43.4766 62.704C43.4086 62.4 43.2986 62.136 43.1466 61.912C42.9986 61.684 42.8046 61.508 42.5646 61.384C42.3286 61.26 42.0406 61.198 41.7006 61.198C41.3886 61.198 41.1126 61.252 40.8726 61.36C40.6366 61.468 40.4366 61.624 40.2726 61.828C40.1126 62.028 39.9906 62.272 39.9066 62.56C39.8226 62.848 39.7806 63.176 39.7806 63.544L39.1566 63.406C39.1566 62.742 39.2726 62.184 39.5046 61.732C39.7366 61.28 40.0566 60.938 40.4646 60.706C40.8726 60.474 41.3406 60.358 41.8686 60.358C42.2566 60.358 42.5946 60.418 42.8826 60.538C43.1746 60.658 43.4206 60.82 43.6206 61.024C43.8246 61.228 43.9886 61.462 44.1126 61.726C44.2366 61.986 44.3266 62.264 44.3826 62.56C44.4386 62.852 44.4666 63.144 44.4666 63.436V67H43.5786ZM38.8926 67V60.52H39.6906V62.116H39.7806V67H38.8926ZM48.5016 67.162C48.1136 67.162 47.7736 67.102 47.4816 66.982C47.1936 66.862 46.9476 66.7 46.7436 66.496C46.5436 66.292 46.3816 66.06 46.2576 65.8C46.1336 65.536 46.0436 65.258 45.9876 64.966C45.9316 64.67 45.9036 64.376 45.9036 64.084V60.52H46.7916V63.826C46.7916 64.182 46.8256 64.512 46.8936 64.816C46.9616 65.12 47.0696 65.386 47.2176 65.614C47.3696 65.838 47.5636 66.012 47.7996 66.136C48.0396 66.26 48.3296 66.322 48.6696 66.322C48.9816 66.322 49.2556 66.268 49.4916 66.16C49.7316 66.052 49.9316 65.898 50.0916 65.698C50.2556 65.494 50.3796 65.248 50.4636 64.96C50.5476 64.668 50.5896 64.34 50.5896 63.976L51.2136 64.114C51.2136 64.778 51.0976 65.336 50.8656 65.788C50.6336 66.24 50.3136 66.582 49.9056 66.814C49.4976 67.046 49.0296 67.162 48.5016 67.162ZM50.6796 67V65.404H50.5896V60.52H51.4716V67H50.6796ZM55.8906 67.18C55.2586 67.18 54.7106 67.04 54.2466 66.76C53.7866 66.48 53.4286 66.086 53.1726 65.578C52.9166 65.07 52.7886 64.474 52.7886 63.79C52.7886 63.082 52.9146 62.47 53.1666 61.954C53.4186 61.438 53.7726 61.04 54.2286 60.76C54.6886 60.48 55.2306 60.34 55.8546 60.34C56.4946 60.34 57.0406 60.488 57.4926 60.784C57.9446 61.076 58.2866 61.496 58.5186 62.044C58.7506 62.592 58.8566 63.246 58.8366 64.006H57.9366V63.694C57.9206 62.854 57.7386 62.22 57.3906 61.792C57.0466 61.364 56.5426 61.15 55.8786 61.15C55.1826 61.15 54.6486 61.376 54.2766 61.828C53.9086 62.28 53.7246 62.924 53.7246 63.76C53.7246 64.576 53.9086 65.21 54.2766 65.662C54.6486 66.11 55.1746 66.334 55.8546 66.334C56.3186 66.334 56.7226 66.228 57.0666 66.016C57.4146 65.8 57.6886 65.49 57.8886 65.086L58.7106 65.404C58.4546 65.968 58.0766 66.406 57.5766 66.718C57.0806 67.026 56.5186 67.18 55.8906 67.18ZM53.4126 64.006V63.268H58.3626V64.006H53.4126ZM65.1445 70.06C64.8125 70.06 64.4845 70.01 64.1605 69.91C63.8405 69.814 63.5445 69.66 63.2725 69.448C63.0005 69.24 62.7725 68.968 62.5885 68.632L63.3865 68.188C63.5665 68.548 63.8185 68.806 64.1425 68.962C64.4705 69.122 64.8045 69.202 65.1445 69.202C65.6125 69.202 65.9905 69.114 66.2785 68.938C66.5705 68.766 66.7825 68.51 66.9145 68.17C67.0465 67.83 67.1105 67.406 67.1065 66.898V65.17H67.2085V60.52H67.9945V66.91C67.9945 67.094 67.9885 67.27 67.9765 67.438C67.9685 67.61 67.9505 67.778 67.9225 67.942C67.8465 68.426 67.6885 68.824 67.4485 69.136C67.2125 69.448 66.9005 69.68 66.5125 69.832C66.1285 69.984 65.6725 70.06 65.1445 70.06ZM65.0845 67.18C64.4805 67.18 63.9645 67.03 63.5365 66.73C63.1085 66.426 62.7805 66.016 62.5525 65.5C62.3245 64.984 62.2105 64.402 62.2105 63.754C62.2105 63.11 62.3225 62.53 62.5465 62.014C62.7745 61.498 63.1005 61.09 63.5245 60.79C63.9485 60.49 64.4565 60.34 65.0485 60.34C65.6565 60.34 66.1685 60.488 66.5845 60.784C67.0005 61.08 67.3145 61.486 67.5265 62.002C67.7425 62.514 67.8505 63.098 67.8505 63.754C67.8505 64.398 67.7445 64.98 67.5325 65.5C67.3205 66.016 67.0085 66.426 66.5965 66.73C66.1845 67.03 65.6805 67.18 65.0845 67.18ZM65.1745 66.358C65.6345 66.358 66.0145 66.246 66.3145 66.022C66.6145 65.798 66.8385 65.49 66.9865 65.098C67.1345 64.702 67.2085 64.254 67.2085 63.754C67.2085 63.246 67.1345 62.798 66.9865 62.41C66.8385 62.018 66.6145 61.712 66.3145 61.492C66.0185 61.272 65.6445 61.162 65.1925 61.162C64.7285 61.162 64.3445 61.276 64.0405 61.504C63.7365 61.732 63.5105 62.042 63.3625 62.434C63.2185 62.826 63.1465 63.266 63.1465 63.754C63.1465 64.246 63.2205 64.69 63.3685 65.086C63.5205 65.478 63.7465 65.788 64.0465 66.016C64.3465 66.244 64.7225 66.358 65.1745 66.358ZM72.414 67.18C71.782 67.18 71.234 67.04 70.77 66.76C70.31 66.48 69.952 66.086 69.696 65.578C69.44 65.07 69.312 64.474 69.312 63.79C69.312 63.082 69.438 62.47 69.69 61.954C69.942 61.438 70.296 61.04 70.752 60.76C71.212 60.48 71.754 60.34 72.378 60.34C73.018 60.34 73.564 60.488 74.016 60.784C74.468 61.076 74.81 61.496 75.042 62.044C75.274 62.592 75.38 63.246 75.36 64.006H74.46V63.694C74.444 62.854 74.262 62.22 73.914 61.792C73.57 61.364 73.066 61.15 72.402 61.15C71.706 61.15 71.172 61.376 70.8 61.828C70.432 62.28 70.248 62.924 70.248 63.76C70.248 64.576 70.432 65.21 70.8 65.662C71.172 66.11 71.698 66.334 72.378 66.334C72.842 66.334 73.246 66.228 73.59 66.016C73.938 65.8 74.212 65.49 74.412 65.086L75.234 65.404C74.978 65.968 74.6 66.406 74.1 66.718C73.604 67.026 73.042 67.18 72.414 67.18ZM69.936 64.006V63.268H74.886V64.006H69.936ZM81.1958 67V63.694C81.1958 63.334 81.1618 63.004 81.0938 62.704C81.0258 62.4 80.9158 62.136 80.7638 61.912C80.6158 61.684 80.4218 61.508 80.1818 61.384C79.9458 61.26 79.6578 61.198 79.3178 61.198C79.0058 61.198 78.7298 61.252 78.4898 61.36C78.2538 61.468 78.0538 61.624 77.8898 61.828C77.7298 62.028 77.6078 62.272 77.5238 62.56C77.4398 62.848 77.3978 63.176 77.3978 63.544L76.7738 63.406C76.7738 62.742 76.8898 62.184 77.1218 61.732C77.3538 61.28 77.6738 60.938 78.0818 60.706C78.4898 60.474 78.9578 60.358 79.4858 60.358C79.8738 60.358 80.2118 60.418 80.4998 60.538C80.7918 60.658 81.0378 60.82 81.2378 61.024C81.4418 61.228 81.6058 61.462 81.7298 61.726C81.8538 61.986 81.9438 62.264 81.9998 62.56C82.0558 62.852 82.0838 63.144 82.0838 63.436V67H81.1958ZM76.5098 67V60.52H77.3078V62.116H77.3978V67H76.5098ZM86.3476 67.18C85.7156 67.18 85.1676 67.04 84.7036 66.76C84.2436 66.48 83.8856 66.086 83.6296 65.578C83.3736 65.07 83.2456 64.474 83.2456 63.79C83.2456 63.082 83.3716 62.47 83.6236 61.954C83.8756 61.438 84.2296 61.04 84.6856 60.76C85.1456 60.48 85.6876 60.34 86.3116 60.34C86.9516 60.34 87.4976 60.488 87.9496 60.784C88.4016 61.076 88.7436 61.496 88.9756 62.044C89.2076 62.592 89.3136 63.246 89.2936 64.006H88.3936V63.694C88.3776 62.854 88.1956 62.22 87.8476 61.792C87.5036 61.364 86.9996 61.15 86.3356 61.15C85.6396 61.15 85.1056 61.376 84.7336 61.828C84.3656 62.28 84.1816 62.924 84.1816 63.76C84.1816 64.576 84.3656 65.21 84.7336 65.662C85.1056 66.11 85.6316 66.334 86.3116 66.334C86.7756 66.334 87.1796 66.228 87.5236 66.016C87.8716 65.8 88.1456 65.49 88.3456 65.086L89.1676 65.404C88.9116 65.968 88.5336 66.406 88.0336 66.718C87.5376 67.026 86.9756 67.18 86.3476 67.18ZM83.8696 64.006V63.268H88.8196V64.006H83.8696ZM90.6252 67V60.52H91.4172V62.08L91.2612 61.876C91.3332 61.684 91.4272 61.508 91.5432 61.348C91.6592 61.184 91.7852 61.05 91.9212 60.946C92.0892 60.798 92.2852 60.686 92.5092 60.61C92.7332 60.53 92.9592 60.484 93.1872 60.472C93.4152 60.456 93.6232 60.472 93.8112 60.52V61.348C93.5752 61.288 93.3172 61.274 93.0372 61.306C92.7572 61.338 92.4992 61.45 92.2632 61.642C92.0472 61.81 91.8852 62.012 91.7772 62.248C91.6692 62.48 91.5972 62.728 91.5612 62.992C91.5252 63.252 91.5072 63.51 91.5072 63.766V67H90.6252ZM96.5573 67.18C96.0693 67.18 95.6593 67.092 95.3273 66.916C94.9993 66.74 94.7533 66.506 94.5893 66.214C94.4253 65.922 94.3433 65.604 94.3433 65.26C94.3433 64.908 94.4133 64.608 94.5533 64.36C94.6973 64.108 94.8913 63.902 95.1353 63.742C95.3833 63.582 95.6693 63.46 95.9933 63.376C96.3213 63.296 96.6833 63.226 97.0793 63.166C97.4793 63.102 97.8693 63.048 98.2493 63.004C98.6333 62.956 98.9693 62.91 99.2573 62.866L98.9453 63.058C98.9573 62.418 98.8333 61.944 98.5733 61.636C98.3133 61.328 97.8613 61.174 97.2173 61.174C96.7733 61.174 96.3973 61.274 96.0893 61.474C95.7853 61.674 95.5713 61.99 95.4473 62.422L94.5893 62.17C94.7373 61.59 95.0353 61.14 95.4833 60.82C95.9313 60.5 96.5133 60.34 97.2293 60.34C97.8213 60.34 98.3233 60.452 98.7353 60.676C99.1513 60.896 99.4453 61.216 99.6173 61.636C99.6973 61.824 99.7493 62.034 99.7733 62.266C99.7973 62.498 99.8093 62.734 99.8093 62.974V67H99.0233V65.374L99.2513 65.47C99.0313 66.026 98.6893 66.45 98.2253 66.742C97.7613 67.034 97.2053 67.18 96.5573 67.18ZM96.6593 66.418C97.0713 66.418 97.4313 66.344 97.7393 66.196C98.0473 66.048 98.2953 65.846 98.4833 65.59C98.6713 65.33 98.7933 65.038 98.8493 64.714C98.8973 64.506 98.9233 64.278 98.9273 64.03C98.9313 63.778 98.9333 63.59 98.9333 63.466L99.2693 63.64C98.9693 63.68 98.6433 63.72 98.2913 63.76C97.9433 63.8 97.5993 63.846 97.2593 63.898C96.9233 63.95 96.6193 64.012 96.3473 64.084C96.1633 64.136 95.9853 64.21 95.8133 64.306C95.6413 64.398 95.4993 64.522 95.3873 64.678C95.2793 64.834 95.2253 65.028 95.2253 65.26C95.2253 65.448 95.2713 65.63 95.3633 65.806C95.4593 65.982 95.6113 66.128 95.8193 66.244C96.0313 66.36 96.3113 66.418 96.6593 66.418ZM104.899 67C104.535 67.076 104.175 67.106 103.819 67.09C103.467 67.074 103.151 66.998 102.871 66.862C102.595 66.726 102.385 66.514 102.241 66.226C102.125 65.986 102.061 65.744 102.049 65.5C102.041 65.252 102.037 64.97 102.037 64.654V58.72H102.913V64.618C102.913 64.89 102.915 65.118 102.919 65.302C102.927 65.482 102.969 65.642 103.045 65.782C103.189 66.05 103.417 66.21 103.729 66.262C104.045 66.314 104.435 66.302 104.899 66.226V67ZM100.651 61.276V60.52H104.899V61.276H100.651ZM108.684 67.18C108.052 67.18 107.504 67.04 107.04 66.76C106.58 66.48 106.222 66.086 105.966 65.578C105.71 65.07 105.582 64.474 105.582 63.79C105.582 63.082 105.708 62.47 105.96 61.954C106.212 61.438 106.566 61.04 107.022 60.76C107.482 60.48 108.024 60.34 108.648 60.34C109.288 60.34 109.834 60.488 110.286 60.784C110.738 61.076 111.08 61.496 111.312 62.044C111.544 62.592 111.65 63.246 111.63 64.006H110.73V63.694C110.714 62.854 110.532 62.22 110.184 61.792C109.84 61.364 109.336 61.15 108.672 61.15C107.976 61.15 107.442 61.376 107.07 61.828C106.702 62.28 106.518 62.924 106.518 63.76C106.518 64.576 106.702 65.21 107.07 65.662C107.442 66.11 107.968 66.334 108.648 66.334C109.112 66.334 109.516 66.228 109.86 66.016C110.208 65.8 110.482 65.49 110.682 65.086L111.504 65.404C111.248 65.968 110.87 66.406 110.37 66.718C109.874 67.026 109.312 67.18 108.684 67.18ZM106.206 64.006V63.268H111.156V64.006H106.206ZM115.475 67.18C114.871 67.18 114.355 67.03 113.927 66.73C113.499 66.426 113.171 66.016 112.943 65.5C112.715 64.984 112.601 64.402 112.601 63.754C112.601 63.11 112.713 62.53 112.937 62.014C113.165 61.498 113.491 61.09 113.915 60.79C114.339 60.49 114.847 60.34 115.439 60.34C116.047 60.34 116.559 60.488 116.975 60.784C117.391 61.08 117.705 61.486 117.917 62.002C118.133 62.514 118.241 63.098 118.241 63.754C118.241 64.398 118.135 64.98 117.923 65.5C117.711 66.016 117.399 66.426 116.987 66.73C116.575 67.03 116.071 67.18 115.475 67.18ZM115.565 66.358C116.025 66.358 116.405 66.246 116.705 66.022C117.005 65.798 117.229 65.49 117.377 65.098C117.525 64.702 117.599 64.254 117.599 63.754C117.599 63.246 117.525 62.798 117.377 62.41C117.229 62.018 117.005 61.712 116.705 61.492C116.409 61.272 116.035 61.162 115.583 61.162C115.119 61.162 114.735 61.276 114.431 61.504C114.127 61.732 113.901 62.042 113.753 62.434C113.609 62.826 113.537 63.266 113.537 63.754C113.537 64.246 113.611 64.69 113.759 65.086C113.911 65.478 114.137 65.788 114.437 66.016C114.737 66.244 115.113 66.358 115.565 66.358ZM117.599 67V62.122H117.503V58.36H118.391V67H117.599Z" fill="white"/>
<defs>
<clipPath id="clip0_1_424">
<rect width="227" height="80" rx="4" fill="white"/>
</clipPath>
</defs>
</svg>
