<svg width="227" height="80" viewBox="0 0 227 80" fill="none" xmlns="http://www.w3.org/2000/svg">
<g clip-path="url(#clip0_1_419)">
<rect width="227" height="80" rx="4" fill="#427A5B"/>
<path d="M746.331 330.965L-565.642 -4652.2H-226.836L1085.14 330.965H746.331Z" fill="#FFCA66"/>
<path d="M1160.32 3468.64L-151.658 -1514.53H187.148L1499.12 3468.64H1160.32Z" fill="#B4CD93"/>
<path d="M486.018 1896.29L-157.806 -553.346H8.4561L652.28 1896.29H486.018Z" fill="#FF896B"/>
<path d="M316.022 471.168L-94.2737 -1088.25H11.6818L421.977 471.168H316.022Z" fill="#FFCA66"/>
<path d="M146.668 844.949L-120.916 -170.103H-51.8149L215.769 844.949H146.668Z" fill="#FFCA66"/>
<path d="M576.424 601.779L65.5817 -1340.33H197.503L708.345 601.779H576.424Z" fill="#FF896B"/>
<path d="M35.3749 335.353L-475.467 -1606.75H-343.547L167.296 335.353H35.3749Z" fill="#B4CD93"/>
</g>
<rect opacity="0.5" width="227" height="80" rx="4" fill="#212121"/>
<path d="M12.2 39.988L12.212 37.756L19.736 31.012C20.344 30.476 20.756 29.964 20.972 29.476C21.196 28.988 21.308 28.5 21.308 28.012C21.308 27.396 21.172 26.844 20.9 26.356C20.628 25.86 20.252 25.468 19.772 25.18C19.292 24.892 18.74 24.748 18.116 24.748C17.476 24.748 16.904 24.9 16.4 25.204C15.904 25.5 15.516 25.896 15.236 26.392C14.956 26.888 14.82 27.424 14.828 28H12.26C12.26 26.88 12.512 25.9 13.016 25.06C13.528 24.212 14.228 23.552 15.116 23.08C16.004 22.6 17.02 22.36 18.164 22.36C19.252 22.36 20.228 22.608 21.092 23.104C21.956 23.592 22.636 24.264 23.132 25.12C23.636 25.976 23.888 26.952 23.888 28.048C23.888 28.84 23.784 29.512 23.576 30.064C23.368 30.616 23.056 31.128 22.64 31.6C22.224 32.072 21.704 32.584 21.08 33.136L15.272 38.32L14.996 37.6H23.888V39.988H12.2ZM31.8899 40.36C31.0019 40.36 30.1739 40.18 29.4059 39.82C28.6459 39.452 27.9939 38.948 27.4499 38.308C26.9059 37.66 26.5179 36.916 26.2859 36.076L28.6979 35.428C28.8339 35.94 29.0659 36.384 29.3939 36.76C29.7299 37.136 30.1219 37.428 30.5699 37.636C31.0179 37.836 31.4819 37.936 31.9619 37.936C32.5939 37.936 33.1659 37.784 33.6779 37.48C34.1979 37.176 34.6059 36.768 34.9019 36.256C35.2059 35.744 35.3579 35.18 35.3579 34.564C35.3579 33.932 35.2019 33.36 34.8899 32.848C34.5859 32.336 34.1739 31.932 33.6539 31.636C33.1419 31.332 32.5779 31.18 31.9619 31.18C31.2579 31.18 30.6619 31.32 30.1739 31.6C29.6859 31.88 29.3059 32.204 29.0339 32.572L26.8499 31.804L27.3779 22.72H36.7019V25.084H28.6619L29.6819 24.136L29.2619 30.94L28.7699 30.304C29.2259 29.848 29.7699 29.5 30.4019 29.26C31.0339 29.02 31.6619 28.9 32.2859 28.9C33.3579 28.9 34.3139 29.148 35.1539 29.644C36.0019 30.14 36.6699 30.816 37.1579 31.672C37.6459 32.52 37.8899 33.484 37.8899 34.564C37.8899 35.636 37.6139 36.612 37.0619 37.492C36.5099 38.364 35.7779 39.06 34.8659 39.58C33.9539 40.1 32.9619 40.36 31.8899 40.36ZM46.7821 40.36C45.6061 40.36 44.5661 40.104 43.6621 39.592C42.7581 39.072 42.0461 38.36 41.5261 37.456C41.0141 36.552 40.7581 35.512 40.7581 34.336V28.384C40.7581 27.208 41.0141 26.168 41.5261 25.264C42.0461 24.36 42.7581 23.652 43.6621 23.14C44.5661 22.62 45.6061 22.36 46.7821 22.36C47.9581 22.36 48.9981 22.62 49.9021 23.14C50.8061 23.652 51.5141 24.36 52.0261 25.264C52.5461 26.168 52.8061 27.208 52.8061 28.384V34.336C52.8061 35.512 52.5461 36.552 52.0261 37.456C51.5141 38.36 50.8061 39.072 49.9021 39.592C48.9981 40.104 47.9581 40.36 46.7821 40.36ZM46.7821 37.96C47.4221 37.96 48.0021 37.808 48.5221 37.504C49.0501 37.192 49.4701 36.776 49.7821 36.256C50.0941 35.728 50.2501 35.14 50.2501 34.492V28.204C50.2501 27.564 50.0941 26.984 49.7821 26.464C49.4701 25.936 49.0501 25.52 48.5221 25.216C48.0021 24.904 47.4221 24.748 46.7821 24.748C46.1421 24.748 45.5581 24.904 45.0301 25.216C44.5101 25.52 44.0941 25.936 43.7821 26.464C43.4701 26.984 43.3141 27.564 43.3141 28.204V34.492C43.3141 35.14 43.4701 35.728 43.7821 36.256C44.0941 36.776 44.5101 37.192 45.0301 37.504C45.5581 37.808 46.1421 37.96 46.7821 37.96Z" fill="white"/>
<path d="M11.84 67V58.36H12.728L17.486 65.44V58.36H18.374V67H17.486L12.728 59.914V67H11.84ZM22.7968 67.18C22.1648 67.18 21.6168 67.04 21.1528 66.76C20.6928 66.48 20.3348 66.086 20.0788 65.578C19.8228 65.07 19.6948 64.474 19.6948 63.79C19.6948 63.082 19.8208 62.47 20.0728 61.954C20.3248 61.438 20.6788 61.04 21.1348 60.76C21.5948 60.48 22.1368 60.34 22.7608 60.34C23.4008 60.34 23.9468 60.488 24.3988 60.784C24.8508 61.076 25.1928 61.496 25.4248 62.044C25.6568 62.592 25.7628 63.246 25.7428 64.006H24.8428V63.694C24.8268 62.854 24.6448 62.22 24.2968 61.792C23.9528 61.364 23.4488 61.15 22.7848 61.15C22.0888 61.15 21.5548 61.376 21.1828 61.828C20.8148 62.28 20.6308 62.924 20.6308 63.76C20.6308 64.576 20.8148 65.21 21.1828 65.662C21.5548 66.11 22.0808 66.334 22.7608 66.334C23.2248 66.334 23.6288 66.228 23.9728 66.016C24.3208 65.8 24.5948 65.49 24.7948 65.086L25.6168 65.404C25.3608 65.968 24.9828 66.406 24.4828 66.718C23.9868 67.026 23.4248 67.18 22.7968 67.18ZM20.3188 64.006V63.268H25.2688V64.006H20.3188ZM28.22 67L26.24 60.514L27.122 60.52L28.658 65.554L30.2 60.52H31.004L32.546 65.554L34.094 60.52H34.97L32.99 67H32.222L30.602 61.84L28.988 67H28.22ZM40.9313 67.162C40.5433 67.162 40.2033 67.102 39.9113 66.982C39.6233 66.862 39.3773 66.7 39.1733 66.496C38.9733 66.292 38.8113 66.06 38.6873 65.8C38.5633 65.536 38.4733 65.258 38.4173 64.966C38.3613 64.67 38.3333 64.376 38.3333 64.084V60.52H39.2213V63.826C39.2213 64.182 39.2553 64.512 39.3233 64.816C39.3913 65.12 39.4993 65.386 39.6473 65.614C39.7993 65.838 39.9933 66.012 40.2293 66.136C40.4693 66.26 40.7593 66.322 41.0993 66.322C41.4113 66.322 41.6853 66.268 41.9213 66.16C42.1613 66.052 42.3613 65.898 42.5213 65.698C42.6853 65.494 42.8093 65.248 42.8933 64.96C42.9773 64.668 43.0193 64.34 43.0193 63.976L43.6433 64.114C43.6433 64.778 43.5273 65.336 43.2953 65.788C43.0633 66.24 42.7433 66.582 42.3353 66.814C41.9273 67.046 41.4593 67.162 40.9313 67.162ZM43.1093 67V65.404H43.0193V60.52H43.9013V67H43.1093ZM47.9963 67.174C47.2363 67.174 46.6103 67.01 46.1183 66.682C45.6303 66.354 45.3303 65.898 45.2183 65.314L46.1183 65.164C46.2143 65.532 46.4323 65.826 46.7723 66.046C47.1163 66.262 47.5403 66.37 48.0443 66.37C48.5363 66.37 48.9243 66.268 49.2083 66.064C49.4923 65.856 49.6343 65.574 49.6343 65.218C49.6343 65.018 49.5883 64.856 49.4963 64.732C49.4083 64.604 49.2263 64.486 48.9503 64.378C48.6743 64.27 48.2623 64.142 47.7143 63.994C47.1263 63.834 46.6663 63.674 46.3343 63.514C46.0023 63.354 45.7663 63.17 45.6263 62.962C45.4863 62.75 45.4163 62.492 45.4163 62.188C45.4163 61.82 45.5203 61.498 45.7283 61.222C45.9363 60.942 46.2243 60.726 46.5923 60.574C46.9603 60.418 47.3883 60.34 47.8763 60.34C48.3643 60.34 48.8003 60.42 49.1843 60.58C49.5723 60.736 49.8843 60.956 50.1203 61.24C50.3563 61.524 50.4963 61.854 50.5403 62.23L49.6403 62.392C49.5803 62.012 49.3903 61.712 49.0703 61.492C48.7543 61.268 48.3523 61.152 47.8643 61.144C47.4043 61.132 47.0303 61.22 46.7423 61.408C46.4543 61.592 46.3103 61.838 46.3103 62.146C46.3103 62.318 46.3623 62.466 46.4663 62.59C46.5703 62.71 46.7583 62.824 47.0303 62.932C47.3063 63.04 47.6983 63.158 48.2063 63.286C48.8023 63.438 49.2703 63.598 49.6103 63.766C49.9503 63.934 50.1923 64.132 50.3363 64.36C50.4803 64.588 50.5523 64.87 50.5523 65.206C50.5523 65.818 50.3243 66.3 49.8683 66.652C49.4163 67 48.7923 67.174 47.9963 67.174ZM54.625 67.18C53.993 67.18 53.445 67.04 52.981 66.76C52.521 66.48 52.163 66.086 51.907 65.578C51.651 65.07 51.523 64.474 51.523 63.79C51.523 63.082 51.649 62.47 51.901 61.954C52.153 61.438 52.507 61.04 52.963 60.76C53.423 60.48 53.965 60.34 54.589 60.34C55.229 60.34 55.775 60.488 56.227 60.784C56.679 61.076 57.021 61.496 57.253 62.044C57.485 62.592 57.591 63.246 57.571 64.006H56.671V63.694C56.655 62.854 56.473 62.22 56.125 61.792C55.781 61.364 55.277 61.15 54.613 61.15C53.917 61.15 53.383 61.376 53.011 61.828C52.643 62.28 52.459 62.924 52.459 63.76C52.459 64.576 52.643 65.21 53.011 65.662C53.383 66.11 53.909 66.334 54.589 66.334C55.053 66.334 55.457 66.228 55.801 66.016C56.149 65.8 56.423 65.49 56.623 65.086L57.445 65.404C57.189 65.968 56.811 66.406 56.311 66.718C55.815 67.026 55.253 67.18 54.625 67.18ZM52.147 64.006V63.268H57.097V64.006H52.147ZM58.9025 67V60.52H59.6945V62.08L59.5385 61.876C59.6105 61.684 59.7045 61.508 59.8205 61.348C59.9365 61.184 60.0625 61.05 60.1985 60.946C60.3665 60.798 60.5625 60.686 60.7865 60.61C61.0105 60.53 61.2365 60.484 61.4645 60.472C61.6925 60.456 61.9005 60.472 62.0885 60.52V61.348C61.8525 61.288 61.5945 61.274 61.3145 61.306C61.0345 61.338 60.7765 61.45 60.5405 61.642C60.3245 61.81 60.1625 62.012 60.0545 62.248C59.9465 62.48 59.8745 62.728 59.8385 62.992C59.8025 63.252 59.7845 63.51 59.7845 63.766V67H58.9025ZM65.4103 67.174C64.6503 67.174 64.0243 67.01 63.5323 66.682C63.0443 66.354 62.7443 65.898 62.6323 65.314L63.5323 65.164C63.6283 65.532 63.8463 65.826 64.1863 66.046C64.5303 66.262 64.9543 66.37 65.4583 66.37C65.9503 66.37 66.3383 66.268 66.6223 66.064C66.9063 65.856 67.0483 65.574 67.0483 65.218C67.0483 65.018 67.0023 64.856 66.9103 64.732C66.8223 64.604 66.6403 64.486 66.3643 64.378C66.0883 64.27 65.6763 64.142 65.1283 63.994C64.5403 63.834 64.0803 63.674 63.7483 63.514C63.4163 63.354 63.1803 63.17 63.0403 62.962C62.9003 62.75 62.8303 62.492 62.8303 62.188C62.8303 61.82 62.9343 61.498 63.1423 61.222C63.3503 60.942 63.6383 60.726 64.0063 60.574C64.3743 60.418 64.8023 60.34 65.2903 60.34C65.7783 60.34 66.2143 60.42 66.5983 60.58C66.9863 60.736 67.2983 60.956 67.5343 61.24C67.7703 61.524 67.9103 61.854 67.9543 62.23L67.0543 62.392C66.9943 62.012 66.8043 61.712 66.4843 61.492C66.1683 61.268 65.7663 61.152 65.2783 61.144C64.8183 61.132 64.4443 61.22 64.1563 61.408C63.8683 61.592 63.7243 61.838 63.7243 62.146C63.7243 62.318 63.7763 62.466 63.8803 62.59C63.9843 62.71 64.1723 62.824 64.4443 62.932C64.7203 63.04 65.1123 63.158 65.6203 63.286C66.2163 63.438 66.6843 63.598 67.0243 63.766C67.3643 63.934 67.6063 64.132 67.7503 64.36C67.8943 64.588 67.9663 64.87 67.9663 65.206C67.9663 65.818 67.7383 66.3 67.2823 66.652C66.8303 67 66.2063 67.174 65.4103 67.174Z" fill="white"/>
<defs>
<clipPath id="clip0_1_419">
<rect width="227" height="80" rx="4" fill="white"/>
</clipPath>
</defs>
</svg>
