<svg width="227" height="80" viewBox="0 0 227 80" fill="none" xmlns="http://www.w3.org/2000/svg">
<g clip-path="url(#clip0_1_413)">
<rect width="227" height="80" rx="4" fill="#427A5B"/>
<path d="M746.331 330.965L-565.642 -4652.2H-226.836L1085.14 330.965H746.331Z" fill="#FFCA66"/>
<path d="M1160.32 3468.64L-151.658 -1514.53H187.148L1499.12 3468.64H1160.32Z" fill="#B4CD93"/>
<path d="M486.018 1896.29L-157.806 -553.346H8.4561L652.28 1896.29H486.018Z" fill="#FF896B"/>
<path d="M316.022 471.168L-94.2737 -1088.25H11.6817L421.977 471.168H316.022Z" fill="#FFCA66"/>
<path d="M146.668 844.949L-120.916 -170.103H-51.8149L215.769 844.949H146.668Z" fill="#FFCA66"/>
<path d="M576.424 601.779L65.5817 -1340.33H197.503L708.345 601.779H576.424Z" fill="#FF896B"/>
<path d="M35.3749 335.353L-475.467 -1606.75H-343.547L167.296 335.353H35.3749Z" fill="#B4CD93"/>
</g>
<rect opacity="0.5" width="227" height="80" rx="4" fill="#212121"/>
<rect opacity="0.2" width="227" height="80" rx="4" fill="#212121"/>
<path d="M17.516 40.324C16.66 40.324 15.856 40.164 15.104 39.844C14.352 39.516 13.7 39.052 13.148 38.452C12.604 37.852 12.208 37.144 11.96 36.328L14.384 35.656C14.616 36.4 15.02 36.972 15.596 37.372C16.172 37.764 16.812 37.956 17.516 37.948C18.148 37.94 18.704 37.792 19.184 37.504C19.664 37.216 20.04 36.828 20.312 36.34C20.584 35.844 20.72 35.276 20.72 34.636C20.72 33.676 20.42 32.884 19.82 32.26C19.228 31.636 18.452 31.324 17.492 31.324C17.22 31.324 16.94 31.364 16.652 31.444C16.372 31.524 16.108 31.628 15.86 31.756L14.684 29.776L20.78 24.388L21.044 25.108H12.644V22.72H23.036V25.108L17.972 29.98L17.948 29.164C19.036 29.164 19.98 29.408 20.78 29.896C21.58 30.376 22.196 31.032 22.628 31.864C23.068 32.688 23.288 33.612 23.288 34.636C23.288 35.74 23.028 36.72 22.508 37.576C21.996 38.432 21.304 39.104 20.432 39.592C19.568 40.08 18.596 40.324 17.516 40.324ZM32.4384 40.36C31.2624 40.36 30.2224 40.104 29.3184 39.592C28.4144 39.072 27.7024 38.36 27.1824 37.456C26.6704 36.552 26.4144 35.512 26.4144 34.336V28.384C26.4144 27.208 26.6704 26.168 27.1824 25.264C27.7024 24.36 28.4144 23.652 29.3184 23.14C30.2224 22.62 31.2624 22.36 32.4384 22.36C33.6144 22.36 34.6544 22.62 35.5584 23.14C36.4624 23.652 37.1704 24.36 37.6824 25.264C38.2024 26.168 38.4624 27.208 38.4624 28.384V34.336C38.4624 35.512 38.2024 36.552 37.6824 37.456C37.1704 38.36 36.4624 39.072 35.5584 39.592C34.6544 40.104 33.6144 40.36 32.4384 40.36ZM32.4384 37.96C33.0784 37.96 33.6584 37.808 34.1784 37.504C34.7064 37.192 35.1264 36.776 35.4384 36.256C35.7504 35.728 35.9064 35.14 35.9064 34.492V28.204C35.9064 27.564 35.7504 26.984 35.4384 26.464C35.1264 25.936 34.7064 25.52 34.1784 25.216C33.6584 24.904 33.0784 24.748 32.4384 24.748C31.7984 24.748 31.2144 24.904 30.6864 25.216C30.1664 25.52 29.7504 25.936 29.4384 26.464C29.1264 26.984 28.9704 27.564 28.9704 28.204V34.492C28.9704 35.14 29.1264 35.728 29.4384 36.256C29.7504 36.776 30.1664 37.192 30.6864 37.504C31.2144 37.808 31.7984 37.96 32.4384 37.96ZM41.5728 42.868L41.7288 41.752C42.0728 41.776 42.3408 41.712 42.5328 41.56C42.7248 41.408 42.8528 41.196 42.9168 40.924C42.9808 40.652 42.9928 40.344 42.9528 40H41.5728V37.108H44.2248V40.24C44.2248 41.184 43.9968 41.896 43.5408 42.376C43.0928 42.856 42.4368 43.02 41.5728 42.868ZM54.7978 40.36C53.6218 40.36 52.5818 40.104 51.6778 39.592C50.7738 39.072 50.0618 38.36 49.5418 37.456C49.0298 36.552 48.7738 35.512 48.7738 34.336V28.384C48.7738 27.208 49.0298 26.168 49.5418 25.264C50.0618 24.36 50.7738 23.652 51.6778 23.14C52.5818 22.62 53.6218 22.36 54.7978 22.36C55.9738 22.36 57.0138 22.62 57.9178 23.14C58.8218 23.652 59.5298 24.36 60.0417 25.264C60.5618 26.168 60.8218 27.208 60.8218 28.384V34.336C60.8218 35.512 60.5618 36.552 60.0417 37.456C59.5298 38.36 58.8218 39.072 57.9178 39.592C57.0138 40.104 55.9738 40.36 54.7978 40.36ZM54.7978 37.96C55.4378 37.96 56.0178 37.808 56.5378 37.504C57.0658 37.192 57.4858 36.776 57.7978 36.256C58.1098 35.728 58.2658 35.14 58.2658 34.492V28.204C58.2658 27.564 58.1098 26.984 57.7978 26.464C57.4858 25.936 57.0658 25.52 56.5378 25.216C56.0178 24.904 55.4378 24.748 54.7978 24.748C54.1578 24.748 53.5738 24.904 53.0458 25.216C52.5258 25.52 52.1098 25.936 51.7978 26.464C51.4858 26.984 51.3298 27.564 51.3298 28.204V34.492C51.3298 35.14 51.4858 35.728 51.7978 36.256C52.1098 36.776 52.5258 37.192 53.0458 37.504C53.5738 37.808 54.1578 37.96 54.7978 37.96ZM70.1962 40.36C69.0202 40.36 67.9802 40.104 67.0762 39.592C66.1722 39.072 65.4602 38.36 64.9402 37.456C64.4282 36.552 64.1722 35.512 64.1722 34.336V28.384C64.1722 27.208 64.4282 26.168 64.9402 25.264C65.4602 24.36 66.1722 23.652 67.0762 23.14C67.9802 22.62 69.0202 22.36 70.1962 22.36C71.3722 22.36 72.4122 22.62 73.3162 23.14C74.2202 23.652 74.9282 24.36 75.4402 25.264C75.9602 26.168 76.2202 27.208 76.2202 28.384V34.336C76.2202 35.512 75.9602 36.552 75.4402 37.456C74.9282 38.36 74.2202 39.072 73.3162 39.592C72.4122 40.104 71.3722 40.36 70.1962 40.36ZM70.1962 37.96C70.8362 37.96 71.4162 37.808 71.9362 37.504C72.4642 37.192 72.8842 36.776 73.1962 36.256C73.5082 35.728 73.6642 35.14 73.6642 34.492V28.204C73.6642 27.564 73.5082 26.984 73.1962 26.464C72.8842 25.936 72.4642 25.52 71.9362 25.216C71.4162 24.904 70.8362 24.748 70.1962 24.748C69.5562 24.748 68.9722 24.904 68.4442 25.216C67.9242 25.52 67.5082 25.936 67.1962 26.464C66.8842 26.984 66.7282 27.564 66.7282 28.204V34.492C66.7282 35.14 66.8842 35.728 67.1962 36.256C67.5082 36.776 67.9242 37.192 68.4442 37.504C68.9722 37.808 69.5562 37.96 70.1962 37.96ZM85.5946 40.36C84.4186 40.36 83.3786 40.104 82.4746 39.592C81.5706 39.072 80.8586 38.36 80.3386 37.456C79.8266 36.552 79.5706 35.512 79.5706 34.336V28.384C79.5706 27.208 79.8266 26.168 80.3386 25.264C80.8586 24.36 81.5706 23.652 82.4746 23.14C83.3786 22.62 84.4186 22.36 85.5946 22.36C86.7706 22.36 87.8106 22.62 88.7146 23.14C89.6186 23.652 90.3266 24.36 90.8386 25.264C91.3586 26.168 91.6186 27.208 91.6186 28.384V34.336C91.6186 35.512 91.3586 36.552 90.8386 37.456C90.3266 38.36 89.6186 39.072 88.7146 39.592C87.8106 40.104 86.7706 40.36 85.5946 40.36ZM85.5946 37.96C86.2346 37.96 86.8146 37.808 87.3346 37.504C87.8626 37.192 88.2826 36.776 88.5946 36.256C88.9066 35.728 89.0626 35.14 89.0626 34.492V28.204C89.0626 27.564 88.9066 26.984 88.5946 26.464C88.2826 25.936 87.8626 25.52 87.3346 25.216C86.8146 24.904 86.2346 24.748 85.5946 24.748C84.9546 24.748 84.3706 24.904 83.8426 25.216C83.3226 25.52 82.9066 25.936 82.5946 26.464C82.2826 26.984 82.1266 27.564 82.1266 28.204V34.492C82.1266 35.14 82.2826 35.728 82.5946 36.256C82.9066 36.776 83.3226 37.192 83.8426 37.504C84.3706 37.808 84.9546 37.96 85.5946 37.96Z" fill="white"/>
<path d="M11.84 67V58.36H15.176C15.26 58.36 15.354 58.364 15.458 58.372C15.566 58.376 15.674 58.388 15.782 58.408C16.234 58.476 16.616 58.634 16.928 58.882C17.244 59.126 17.482 59.434 17.642 59.806C17.806 60.178 17.888 60.59 17.888 61.042C17.888 61.49 17.806 61.9 17.642 62.272C17.478 62.644 17.238 62.954 16.922 63.202C16.61 63.446 16.23 63.602 15.782 63.67C15.674 63.686 15.566 63.698 15.458 63.706C15.354 63.714 15.26 63.718 15.176 63.718H12.722V67H11.84ZM12.722 62.878H15.152C15.224 62.878 15.308 62.874 15.404 62.866C15.5 62.858 15.594 62.844 15.686 62.824C15.982 62.76 16.224 62.638 16.412 62.458C16.604 62.278 16.746 62.064 16.838 61.816C16.934 61.568 16.982 61.31 16.982 61.042C16.982 60.774 16.934 60.516 16.838 60.268C16.746 60.016 16.604 59.8 16.412 59.62C16.224 59.44 15.982 59.318 15.686 59.254C15.594 59.234 15.5 59.222 15.404 59.218C15.308 59.21 15.224 59.206 15.152 59.206H12.722V62.878ZM20.6549 67.18C20.1669 67.18 19.7569 67.092 19.4249 66.916C19.0969 66.74 18.8509 66.506 18.6869 66.214C18.5229 65.922 18.4409 65.604 18.4409 65.26C18.4409 64.908 18.5109 64.608 18.6509 64.36C18.7949 64.108 18.9889 63.902 19.2329 63.742C19.4809 63.582 19.7669 63.46 20.0909 63.376C20.4189 63.296 20.7809 63.226 21.1769 63.166C21.5769 63.102 21.9669 63.048 22.3469 63.004C22.7309 62.956 23.0669 62.91 23.3549 62.866L23.0429 63.058C23.0549 62.418 22.9309 61.944 22.6709 61.636C22.4109 61.328 21.9589 61.174 21.3149 61.174C20.8709 61.174 20.4949 61.274 20.1869 61.474C19.8829 61.674 19.6689 61.99 19.5449 62.422L18.6869 62.17C18.8349 61.59 19.1329 61.14 19.5809 60.82C20.0289 60.5 20.6109 60.34 21.3269 60.34C21.9189 60.34 22.4209 60.452 22.8329 60.676C23.2489 60.896 23.5429 61.216 23.7149 61.636C23.7949 61.824 23.8469 62.034 23.8709 62.266C23.8949 62.498 23.9069 62.734 23.9069 62.974V67H23.1209V65.374L23.3489 65.47C23.1289 66.026 22.7869 66.45 22.3229 66.742C21.8589 67.034 21.3029 67.18 20.6549 67.18ZM20.7569 66.418C21.1689 66.418 21.5289 66.344 21.8369 66.196C22.1449 66.048 22.3929 65.846 22.5809 65.59C22.7689 65.33 22.8909 65.038 22.9469 64.714C22.9949 64.506 23.0209 64.278 23.0249 64.03C23.0289 63.778 23.0309 63.59 23.0309 63.466L23.3669 63.64C23.0669 63.68 22.7409 63.72 22.3889 63.76C22.0409 63.8 21.6969 63.846 21.3569 63.898C21.0209 63.95 20.7169 64.012 20.4449 64.084C20.2609 64.136 20.0829 64.21 19.9109 64.306C19.7389 64.398 19.5969 64.522 19.4849 64.678C19.3769 64.834 19.3229 65.028 19.3229 65.26C19.3229 65.448 19.3689 65.63 19.4609 65.806C19.5569 65.982 19.7089 66.128 19.9169 66.244C20.1289 66.36 20.4089 66.418 20.7569 66.418ZM26.0296 69.88L27.2836 66.478L27.3016 67.486L24.4636 60.52H25.3996L27.7276 66.346H27.3436L29.4916 60.52H30.3916L26.9116 69.88H26.0296ZM39.1618 67L39.1678 62.746C39.1678 62.246 39.0278 61.854 38.7478 61.57C38.4718 61.282 38.1198 61.138 37.6918 61.138C37.4478 61.138 37.2098 61.194 36.9778 61.306C36.7458 61.418 36.5538 61.598 36.4018 61.846C36.2538 62.094 36.1798 62.418 36.1798 62.818L35.6578 62.668C35.6458 62.204 35.7358 61.798 35.9278 61.45C36.1238 61.102 36.3918 60.832 36.7318 60.64C37.0758 60.444 37.4638 60.346 37.8958 60.346C38.5478 60.346 39.0698 60.548 39.4618 60.952C39.8538 61.352 40.0498 61.894 40.0498 62.578L40.0438 67H39.1618ZM31.4278 67V60.52H32.2198V62.116H32.3158V67H31.4278ZM35.3038 67L35.3098 62.806C35.3098 62.29 35.1718 61.884 34.8958 61.588C34.6238 61.288 34.2638 61.138 33.8158 61.138C33.3678 61.138 33.0058 61.292 32.7298 61.6C32.4538 61.904 32.3158 62.31 32.3158 62.818L31.7878 62.53C31.7878 62.114 31.8858 61.742 32.0818 61.414C32.2778 61.082 32.5458 60.822 32.8858 60.634C33.2258 60.442 33.6118 60.346 34.0438 60.346C34.4558 60.346 34.8218 60.434 35.1418 60.61C35.4658 60.786 35.7198 61.042 35.9038 61.378C36.0878 61.714 36.1798 62.122 36.1798 62.602L36.1738 67H35.3038ZM44.3125 67.18C43.6805 67.18 43.1325 67.04 42.6685 66.76C42.2085 66.48 41.8505 66.086 41.5945 65.578C41.3385 65.07 41.2105 64.474 41.2105 63.79C41.2105 63.082 41.3365 62.47 41.5885 61.954C41.8405 61.438 42.1945 61.04 42.6505 60.76C43.1105 60.48 43.6525 60.34 44.2765 60.34C44.9165 60.34 45.4625 60.488 45.9145 60.784C46.3665 61.076 46.7085 61.496 46.9405 62.044C47.1725 62.592 47.2785 63.246 47.2585 64.006H46.3585V63.694C46.3425 62.854 46.1605 62.22 45.8125 61.792C45.4685 61.364 44.9645 61.15 44.3005 61.15C43.6045 61.15 43.0705 61.376 42.6985 61.828C42.3305 62.28 42.1465 62.924 42.1465 63.76C42.1465 64.576 42.3305 65.21 42.6985 65.662C43.0705 66.11 43.5965 66.334 44.2765 66.334C44.7405 66.334 45.1445 66.228 45.4885 66.016C45.8365 65.8 46.1105 65.49 46.3105 65.086L47.1325 65.404C46.8765 65.968 46.4985 66.406 45.9985 66.718C45.5025 67.026 44.9405 67.18 44.3125 67.18ZM41.8345 64.006V63.268H46.7845V64.006H41.8345ZM53.0942 67V63.694C53.0942 63.334 53.0602 63.004 52.9922 62.704C52.9242 62.4 52.8142 62.136 52.6622 61.912C52.5142 61.684 52.3202 61.508 52.0802 61.384C51.8442 61.26 51.5562 61.198 51.2162 61.198C50.9042 61.198 50.6282 61.252 50.3882 61.36C50.1522 61.468 49.9522 61.624 49.7882 61.828C49.6282 62.028 49.5062 62.272 49.4222 62.56C49.3382 62.848 49.2962 63.176 49.2962 63.544L48.6722 63.406C48.6722 62.742 48.7882 62.184 49.0202 61.732C49.2522 61.28 49.5722 60.938 49.9802 60.706C50.3882 60.474 50.8562 60.358 51.3842 60.358C51.7722 60.358 52.1102 60.418 52.3982 60.538C52.6902 60.658 52.9362 60.82 53.1362 61.024C53.3402 61.228 53.5042 61.462 53.6282 61.726C53.7522 61.986 53.8422 62.264 53.8982 62.56C53.9542 62.852 53.9822 63.144 53.9822 63.436V67H53.0942ZM48.4082 67V60.52H49.2062V62.116H49.2962V67H48.4082ZM59.0672 67C58.7032 67.076 58.3432 67.106 57.9872 67.09C57.6352 67.074 57.3192 66.998 57.0392 66.862C56.7632 66.726 56.5532 66.514 56.4092 66.226C56.2932 65.986 56.2292 65.744 56.2172 65.5C56.2092 65.252 56.2052 64.97 56.2052 64.654V58.72H57.0812V64.618C57.0812 64.89 57.0832 65.118 57.0872 65.302C57.0952 65.482 57.1372 65.642 57.2132 65.782C57.3572 66.05 57.5852 66.21 57.8972 66.262C58.2132 66.314 58.6032 66.302 59.0672 66.226V67ZM54.8192 61.276V60.52H59.0672V61.276H54.8192Z" fill="white"/>
<defs>
<clipPath id="clip0_1_413">
<rect width="227" height="80" rx="4" fill="white"/>
</clipPath>
</defs>
</svg>
